<?xml version="1.0" standalone="no"?><!DOCTYPE svg PUBLIC "-//W3C//DTD SVG 1.1//EN" "http://www.w3.org/Graphics/SVG/1.1/DTD/svg11.dtd"><svg t="1487820106327" class="icon" style="" viewBox="0 0 1024 1024" version="1.1" xmlns="http://www.w3.org/2000/svg" p-id="12824" xmlns:xlink="http://www.w3.org/1999/xlink" width="16" height="16"><defs><style type="text/css"></style></defs><path d="M533.28835 590.364789l-36.582173 37.881772c20.921495 20.205181 21.503756 53.543474 1.299599 74.463945l-182.910866 189.410907c-20.203134 20.920472-53.54245 21.502733-74.463945 1.299599l-113.64634-109.74652c-20.921495-20.203134-21.503756-53.543474-1.299599-74.463945l182.910866-189.410907c20.203134-20.920472 53.541427-21.503756 74.463945-1.299599l36.582173-37.881772c-41.84299-40.407292-108.519576-39.243793-148.927891 2.599198l-182.910866 189.408861c-40.408315 41.84299-39.244816 108.520599 2.600221 148.929938l113.64634 109.74652c41.84299 40.407292 108.519576 39.243793 148.927891-2.599198l182.910866-189.408861C576.296887 697.451736 575.132364 630.774127 533.28835 590.364789zM680.916643 513.301645c-20.203134 20.922519-53.54245 21.503756-74.463945 1.299599l-36.582173 37.881772c41.84299 40.409338 108.519576 39.243793 148.927891-2.599198l182.910866-189.408861c40.408315-41.84299 39.244816-108.520599-2.599198-148.927891l-113.64634-109.74652c-41.844014-40.409338-108.521622-39.243793-148.928914 2.599198l-182.910866 189.408861c-40.406269 41.84299-39.242769 108.520599 2.600221 148.927891l36.582173-37.881772c-20.920472-20.203134-21.502733-53.543474-1.299599-74.463945l182.910866-189.408861c20.203134-20.922519 53.54245-21.505803 74.463945-1.299599l113.64634 109.74652c20.921495 20.203134 21.503756 53.541427 1.299599 74.463945L680.916643 513.301645zM758.066767 621.87648l0 52.661384 210.648604 0 0-52.661384L758.066767 621.87648zM600.080569 990.509235l52.662407 0 0-210.647581-52.662407 0L600.080569 990.509235zM690.343339 751.968373l151.528112 146.33074 36.58115-37.883819-151.527089-146.328693L690.343339 751.968373zM389.432988 68.922742l-52.662407 0 0 210.649628 52.662407 0L389.432988 68.922742zM231.446791 384.897184 20.798187 384.897184l0 52.661384 210.648604 0L231.446791 384.897184zM297.22082 310.713624l-146.328693-151.527089-37.882795 36.582173 146.328693 151.527089L297.22082 310.713624z" p-id="12825" fill="#f48771"></path></svg>